<svg width="36" height="36" viewBox="0 0 36 36" fill="none" xmlns="http://www.w3.org/2000/svg">
<path d="M6.1 29.4423C7.99487 28.1551 9.88588 27.1455 11.7731 26.4135C13.6602 25.6814 15.7359 25.3154 18 25.3154C20.2641 25.3154 22.3417 25.6814 24.2327 26.4135C26.1237 27.1455 28.0167 28.1551 29.9116 29.4423C31.3526 27.8731 32.4712 26.1322 33.2673 24.2197C34.0635 22.3073 34.4616 20.2341 34.4616 18C34.4616 13.3974 32.8686 9.5032 29.6827 6.3173C26.4968 3.1314 22.6026 1.53845 18 1.53845C13.3974 1.53845 9.5032 3.1314 6.3173 6.3173C3.1314 9.5032 1.53845 13.3974 1.53845 18C1.53845 20.2341 1.93845 22.3073 2.73845 24.2197C3.53845 26.1322 4.65897 27.8731 6.1 29.4423ZM17.9876 18.7693C16.3189 18.7693 14.916 18.1965 13.7788 17.0511C12.6417 15.9056 12.0731 14.4986 12.0731 12.8299C12.0731 11.1612 12.6458 9.75832 13.7913 8.62115C14.9367 7.48398 16.3437 6.9154 18.0124 6.9154C19.6811 6.9154 21.084 7.48812 22.2211 8.63355C23.3583 9.77898 23.927 11.186 23.927 12.8547C23.927 14.5234 23.3542 15.9263 22.2087 17.0635C21.0633 18.2007 19.6563 18.7693 17.9876 18.7693ZM18.0234 36C15.5052 36 13.155 35.5327 10.9726 34.5981C8.7902 33.6635 6.88315 32.3776 5.25145 30.7404C3.61972 29.1032 2.33653 27.2001 1.4019 25.031C0.4673 22.8618 0 20.5201 0 18.0059C0 15.4917 0.4673 13.1481 1.4019 10.975C2.33653 8.80193 3.62243 6.8968 5.2596 5.2596C6.8968 3.62243 8.79995 2.33653 10.9691 1.4019C13.1382 0.467301 15.4799 0 17.9941 0C20.5083 0 22.8519 0.467301 25.025 1.4019C27.1981 2.33653 29.1032 3.62243 30.7404 5.2596C32.3776 6.8968 33.6635 8.80247 34.5981 10.9766C35.5327 13.1507 36 15.4841 36 17.9766C36 20.4948 35.5327 22.845 34.5981 25.0274C33.6635 27.2098 32.3776 29.1169 30.7404 30.7486C29.1032 32.3803 27.1975 33.6635 25.0234 34.5981C22.8493 35.5327 20.5159 36 18.0234 36ZM18 34.4616C19.8846 34.4616 21.7596 34.1372 23.625 33.4884C25.4904 32.8397 27.1705 31.8616 28.6654 30.5539C27.1705 29.4051 25.5205 28.5013 23.7154 27.8423C21.9103 27.1833 20.0051 26.8539 18 26.8539C15.9949 26.8539 14.0833 27.1769 12.2654 27.8231C10.4474 28.4692 8.81667 29.3795 7.3731 30.5539C8.84233 31.8616 10.5096 32.8397 12.375 33.4884C14.2404 34.1372 16.1154 34.4616 18 34.4616ZM18.0054 17.2307C19.2633 17.2307 20.3083 16.8129 21.1404 15.9773C21.9724 15.1417 22.3884 14.0949 22.3884 12.837C22.3884 11.579 21.9706 10.534 21.135 9.7019C20.2994 8.86987 19.2526 8.45385 17.9946 8.45385C16.7367 8.45385 15.6917 8.87167 14.8596 9.7073C14.0276 10.5429 13.6115 11.5897 13.6115 12.8477C13.6115 14.1056 14.0294 15.1506 14.865 15.9827C15.7006 16.8147 16.7474 17.2307 18.0054 17.2307Z" fill="#242424"/>
</svg>
