<svg width="72" height="84" viewBox="0 0 72 84" fill="none" xmlns="http://www.w3.org/2000/svg">
<path d="M24 5.9375V0H48V5.9375H24ZM33 50.1719H39V27.4115H33V50.1719ZM36 83.026C31.0667 83.026 26.4167 82.0859 22.05 80.2057C17.6833 78.3255 13.8667 75.7691 10.6 72.5365C7.33333 69.3038 4.75 65.5269 2.85 61.2057C0.95 56.8845 0 52.283 0 47.401C0 42.5191 0.95 37.9175 2.85 33.5964C4.75 29.2752 7.33333 25.4983 10.6 22.2656C13.8667 19.033 17.6833 16.4766 22.05 14.5964C26.4167 12.7161 31.0667 11.776 36 11.776C40.4667 11.776 44.6667 12.5182 48.6 14.0026C52.5333 15.487 56.0333 17.5486 59.1 20.1875L64.2 15.1406L68.4 19.2969L63.3 24.3437C65.7 26.9826 67.75 30.1823 69.45 33.9427C71.15 37.7031 72 42.1892 72 47.401C72 52.283 71.05 56.8845 69.15 61.2057C67.25 65.5269 64.6667 69.3038 61.4 72.5365C58.1333 75.7691 54.3167 78.3255 49.95 80.2057C45.5833 82.0859 40.9333 83.026 36 83.026ZM36 77.0885C44.3333 77.0885 51.4167 74.2023 57.25 68.4297C63.0833 62.6571 66 55.6476 66 47.401C66 39.1545 63.0833 32.145 57.25 26.3724C51.4167 20.5998 44.3333 17.7135 36 17.7135C27.6667 17.7135 20.5833 20.5998 14.75 26.3724C8.91667 32.145 6 39.1545 6 47.401C6 55.6476 8.91667 62.6571 14.75 68.4297C20.5833 74.2023 27.6667 77.0885 36 77.0885Z" fill="#F9BAB1"/>
</svg>
