<svg width="28" height="32" viewBox="0 0 28 32" fill="none" xmlns="http://www.w3.org/2000/svg">
<path d="M1.53845 29.6346H9.6154V17.6346H18.3846V29.6346H26.4616V10.9423L14 1.5L1.53845 10.9295V29.6346ZM1.53845 31.1731C1.12948 31.1731 0.770833 31.0189 0.4625 30.7106C0.154167 30.4023 0 30.0436 0 29.6346V10.9423C0 10.7043 0.0475498 10.4788 0.14265 10.2658C0.237783 10.0529 0.397917 9.87582 0.62305 9.73465L13.0846 0.292297C13.2329 0.194864 13.3827 0.121799 13.534 0.0730988C13.6853 0.0243654 13.8429 0 14.0068 0C14.1707 0 14.327 0.0243654 14.4759 0.0730988C14.6247 0.121799 14.7712 0.194864 14.9154 0.292297L27.377 9.73465C27.6021 9.87582 27.7622 10.0529 27.8573 10.2658C27.9524 10.4788 28 10.7043 28 10.9423V29.6346C28 30.0436 27.8458 30.4023 27.5375 30.7106C27.2292 31.0189 26.8705 31.1731 26.4616 31.1731H16.8461V19.1731H11.1538V31.1731H1.53845Z" fill="#242424"/>
</svg>
