<svg width="38" height="39" viewBox="0 0 38 39" fill="none" xmlns="http://www.w3.org/2000/svg">
<path d="M19 19.3026C18.5435 19.3026 18.1688 19.1497 17.876 18.8439C17.5831 18.5382 17.4367 18.1635 17.4367 17.7199C17.4367 17.2763 17.5831 16.9016 17.876 16.5959C18.1688 16.2901 18.5435 16.1372 19 16.1372C19.4565 16.1372 19.8312 16.2928 20.124 16.6041C20.4169 16.9154 20.5633 17.2808 20.5633 17.7005C20.5633 18.157 20.4169 18.5382 20.124 18.8439C19.8312 19.1497 19.4565 19.3026 19 19.3026ZM19 11.234C18.5435 11.234 18.1688 11.0811 17.876 10.7753C17.5831 10.4696 17.4367 10.0949 17.4367 9.65126C17.4367 9.20769 17.5831 8.83302 17.876 8.52725C18.1688 8.22149 18.5435 8.0686 19 8.0686C19.4565 8.0686 19.8312 8.22423 20.124 8.53547C20.4169 8.84675 20.5633 9.21223 20.5633 9.6319C20.5633 10.0884 20.4169 10.4696 20.124 10.7753C19.8312 11.0811 19.4565 11.234 19 11.234ZM19 3.16536C18.5435 3.16536 18.1688 3.01248 17.876 2.70671C17.5831 2.40095 17.4367 2.02626 17.4367 1.58266C17.4367 1.13908 17.5831 0.764415 17.876 0.458648C18.1688 0.152882 18.5435 0 19 0C19.4565 0 19.8312 0.155623 20.124 0.466869C20.4169 0.778149 20.5633 1.14362 20.5633 1.56329C20.5633 2.01981 20.4169 2.40095 20.124 2.70671C19.8312 3.01248 19.4565 3.16536 19 3.16536ZM25.0398 23.2864C24.5833 23.2864 24.2021 23.14 23.8964 22.8472C23.5906 22.5543 23.4377 22.1797 23.4377 21.7232C23.4377 21.2666 23.5906 20.892 23.8964 20.5991C24.2021 20.3063 24.5768 20.1599 25.0204 20.1599C25.464 20.1599 25.8387 20.3063 26.1444 20.5991C26.4502 20.892 26.6031 21.2666 26.6031 21.7232C26.6031 22.1797 26.4475 22.5543 26.1362 22.8472C25.8249 23.14 25.4595 23.2864 25.0398 23.2864ZM30.7383 17.5376C30.2817 17.5376 29.9006 17.3911 29.5948 17.0983C29.2891 16.8055 29.1362 16.4308 29.1362 15.9743C29.1362 15.5178 29.2891 15.1431 29.5948 14.8503C29.9006 14.5574 30.2753 14.411 30.7189 14.411C31.1625 14.411 31.5371 14.5574 31.8429 14.8503C32.1487 15.1431 32.3015 15.5178 32.3015 15.9743C32.3015 16.4308 32.1459 16.8055 31.8347 17.0983C31.5234 17.3911 31.1579 17.5376 30.7383 17.5376ZM36.4367 11.8895C35.9802 11.8895 35.5991 11.7431 35.2933 11.4503C34.9875 11.1574 34.8346 10.7828 34.8346 10.3262C34.8346 9.86974 34.9875 9.49507 35.2933 9.20224C35.5991 8.90939 35.9737 8.76296 36.4173 8.76296C36.8609 8.76296 37.2356 8.90939 37.5414 9.20224C37.8471 9.49507 38 9.86974 38 10.3262C38 10.7828 37.8444 11.1574 37.5331 11.4503C37.2218 11.7431 36.8564 11.8895 36.4367 11.8895ZM12.9796 23.2864C12.536 23.2864 12.1613 23.14 11.8556 22.8472C11.5498 22.5543 11.3969 22.1797 11.3969 21.7232C11.3969 21.2666 11.5525 20.892 11.8638 20.5991C12.1751 20.3063 12.5405 20.1599 12.9602 20.1599C13.4167 20.1599 13.7979 20.3063 14.1036 20.5991C14.4094 20.892 14.5623 21.2666 14.5623 21.7232C14.5623 22.1797 14.4094 22.5543 14.1036 22.8472C13.7979 23.14 13.4232 23.2864 12.9796 23.2864ZM7.28111 17.5376C6.83754 17.5376 6.46287 17.3911 6.1571 17.0983C5.85134 16.8055 5.69845 16.4308 5.69845 15.9743C5.69845 15.5178 5.85408 15.1431 6.16532 14.8503C6.4766 14.5574 6.84208 14.411 7.26174 14.411C7.71826 14.411 8.0994 14.5574 8.40517 14.8503C8.71093 15.1431 8.86382 15.5178 8.86382 15.9743C8.86382 16.4308 8.71093 16.8055 8.40517 17.0983C8.0994 17.3911 7.72471 17.5376 7.28111 17.5376ZM1.58266 11.8895C1.13909 11.8895 0.764416 11.7431 0.458649 11.4503C0.152883 11.1574 0 10.7828 0 10.3262C0 9.86974 0.155623 9.49507 0.466869 9.20224C0.778149 8.90939 1.14362 8.76296 1.56329 8.76296C2.01981 8.76296 2.40095 8.90939 2.70671 9.20224C3.01248 9.49507 3.16536 9.86974 3.16536 10.3262C3.16536 10.7828 3.01248 11.1574 2.70671 11.4503C2.40095 11.7431 2.02626 11.8895 1.58266 11.8895ZM18.9891 38.8689C18.7662 38.8689 18.583 38.7946 18.4395 38.6459C18.2959 38.4972 18.2242 38.3129 18.2242 38.0931V30.5676H10.9314C10.7116 30.5676 10.5273 30.4922 10.3786 30.3414C10.2299 30.1906 10.1555 30.0038 10.1555 29.7809C10.1555 29.558 10.2299 29.3748 10.3786 29.2312C10.5273 29.0877 10.7116 29.0159 10.9314 29.0159H27.0686C27.2884 29.0159 27.4727 29.0913 27.6214 29.2421C27.7701 29.3929 27.8445 29.5798 27.8445 29.8027C27.8445 30.0255 27.7701 30.2088 27.6214 30.3523C27.4727 30.4958 27.2884 30.5676 27.0686 30.5676H19.7758V38.0931C19.7758 38.3129 19.7005 38.4972 19.5497 38.6459C19.3989 38.7946 19.212 38.8689 18.9891 38.8689Z" fill="#242424"/>
</svg>
