<svg width="77" height="77" viewBox="0 0 77 77" fill="none" xmlns="http://www.w3.org/2000/svg">
<path d="M25.587 37.4306C27.6411 37.4306 29.3964 36.6966 30.8529 35.2287C32.3094 33.7608 33.0376 31.9963 33.0376 29.9349C33.0376 27.8737 32.3062 26.1123 30.8434 24.6507C29.3806 23.1891 27.6222 22.4583 25.568 22.4583C23.5139 22.4583 21.7586 23.1923 20.3021 24.6602C18.8456 26.1281 18.1174 27.8927 18.1174 29.954C18.1174 32.0152 18.8488 33.7766 20.3116 35.2382C21.7744 36.6998 23.5328 37.4306 25.587 37.4306ZM51.1645 37.4306C53.2186 37.4306 54.9739 36.6966 56.4304 35.2287C57.8869 33.7608 58.6151 31.9963 58.6151 29.9349C58.6151 27.8737 57.8837 26.1123 56.4209 24.6507C54.9581 23.1891 53.1997 22.4583 51.1455 22.4583C49.0914 22.4583 47.3361 23.1923 45.8796 24.6602C44.4231 26.1281 43.6949 27.8927 43.6949 29.954C43.6949 32.0152 44.4263 33.7766 45.8891 35.2382C47.3519 36.6998 49.1103 37.4306 51.1645 37.4306ZM24.5118 77V58.8195H35.1691V77H24.5118ZM41.5634 77V58.8195H52.2207V77H41.5634ZM6.39438 77C4.63592 77 3.13058 76.3717 1.87835 75.1151C0.626116 73.8585 0 72.3479 0 70.5834V25.6667C0 18.537 2.4867 12.4769 7.4601 7.48611C12.4335 2.49537 18.4726 0 25.5775 0H51.155C58.2599 0 64.299 2.49537 69.2724 7.48611C74.2458 12.4769 76.7325 18.537 76.7325 25.6667V70.5834C76.7325 72.3479 76.1064 73.8585 74.8542 75.1151C73.6019 76.3717 72.0966 77 70.3381 77H58.6151V58.8195C58.6151 57.0549 57.989 55.5443 56.7368 54.2877C55.4845 53.0311 53.9792 52.4028 52.2207 52.4028H24.5118C22.7533 52.4028 21.248 53.0311 19.9957 54.2877C18.7435 55.5443 18.1174 57.0549 18.1174 58.8195V77H6.39438Z" fill="#326E62"/>
</svg>
