<svg width="36" height="32" viewBox="0 0 36 32" fill="none" xmlns="http://www.w3.org/2000/svg">
<path d="M17.9943 25.3154C20.0391 25.3154 21.7564 24.6205 23.1461 23.2308C24.5359 21.841 25.2308 20.1237 25.2308 18.0788C25.2308 16.034 24.5359 14.3186 23.1461 12.9327C21.7564 11.5468 20.0391 10.8539 17.9943 10.8539C15.9494 10.8539 14.234 11.5468 12.8481 12.9327C11.4621 14.3186 10.7692 16.034 10.7692 18.0788C10.7692 20.1237 11.4621 21.841 12.8481 23.2308C14.234 24.6205 15.9494 25.3154 17.9943 25.3154ZM2.7692 32C2.00063 32 1.34695 31.7306 0.80815 31.1919C0.269383 30.6531 0 29.9994 0 29.2308V6.9269C0 6.16023 0.269383 5.50703 0.80815 4.9673C1.34695 4.42757 2.00063 4.1577 2.7692 4.1577H9.1577L12.0231 0.896149C12.2897 0.606415 12.5944 0.384616 12.937 0.23075C13.2795 0.0769162 13.6646 0 14.0923 0H21.9077C22.3354 0 22.7205 0.0769162 23.063 0.23075C23.4056 0.384616 23.7103 0.606415 23.9769 0.896149L26.8423 4.1577H33.2308C33.9975 4.1577 34.6507 4.42757 35.1904 4.9673C35.7301 5.50703 36 6.16023 36 6.9269V29.2308C36 29.9994 35.7301 30.6531 35.1904 31.1919C34.6507 31.7306 33.9975 32 33.2308 32H2.7692ZM33.2308 30.4616C33.5898 30.4616 33.8846 30.3462 34.1154 30.1154C34.3462 29.8846 34.4616 29.5898 34.4616 29.2308V6.9269C34.4616 6.59357 34.3462 6.30512 34.1154 6.06155C33.8846 5.81795 33.5898 5.69615 33.2308 5.69615H2.7692C2.41023 5.69615 2.11537 5.81795 1.8846 6.06155C1.65383 6.30512 1.53845 6.59357 1.53845 6.9269V29.2308C1.53845 29.5898 1.65383 29.8846 1.8846 30.1154C2.11537 30.3462 2.41023 30.4616 2.7692 30.4616H33.2308Z" fill="#242424"/>
</svg>
