<svg width="24" height="16" viewBox="0 0 24 16" fill="none" xmlns="http://www.w3.org/2000/svg">
<path d="M12.0091 12.3089C13.2025 12.3089 14.2224 11.8826 15.0689 11.0299C15.9155 10.1773 16.3387 9.15429 16.3387 7.96094C16.3387 6.76761 15.9124 5.74768 15.0598 4.90116C14.2072 4.05461 13.1842 3.63133 11.9908 3.63133C10.7975 3.63133 9.77754 4.05765 8.93099 4.91029C8.08447 5.76293 7.6612 6.78592 7.6612 7.97927C7.6612 9.1726 8.08752 10.1925 8.94016 11.0391C9.7928 11.8856 10.8158 12.3089 12.0091 12.3089ZM11.9886 11.3326C11.0514 11.3326 10.2586 11.0046 9.61011 10.3486C8.96167 9.69256 8.63745 8.89594 8.63745 7.95873C8.63745 7.02153 8.96546 6.2287 9.62148 5.58024C10.2775 4.9318 11.0741 4.60758 12.0113 4.60758C12.9485 4.60758 13.7414 4.93559 14.3898 5.59161C15.0383 6.24765 15.3625 7.04428 15.3625 7.98148C15.3625 8.91868 15.0345 9.71151 14.3785 10.36C13.7224 11.0084 12.9258 11.3326 11.9886 11.3326ZM12.0022 15.9402C9.4792 15.9402 7.16406 15.2721 5.05679 13.9359C2.94949 12.5997 1.3102 10.8158 0.138925 8.58411C0.0919014 8.49861 0.0569964 8.40306 0.0342101 8.29746C0.0114033 8.19187 0 8.08275 0 7.97011C0 7.85746 0.0114033 7.74834 0.0342101 7.64275C0.0569964 7.53716 0.0919014 7.4416 0.138925 7.3561C1.3102 5.12445 2.94874 3.34052 5.05455 2.0043C7.16035 0.668098 9.47475 0 11.9977 0C14.5207 0 16.8359 0.668098 18.9432 2.0043C21.0505 3.34052 22.6897 5.12445 23.861 7.3561C23.908 7.4416 23.943 7.53716 23.9657 7.64275C23.9885 7.74834 23.9999 7.85746 23.9999 7.97011C23.9999 8.08275 23.9885 8.19187 23.9657 8.29746C23.943 8.40306 23.908 8.49861 23.861 8.58411C22.6897 10.8158 21.0512 12.5997 18.9454 13.9359C16.8396 15.2721 14.5252 15.9402 12.0022 15.9402ZM11.9948 14.997C14.3924 14.997 16.5891 14.3631 18.5848 13.0953C20.5804 11.8274 22.1041 10.1191 23.1558 7.97011C22.1041 5.82116 20.5821 4.11278 18.5899 2.84496C16.5977 1.57712 14.4028 0.9432 12.0052 0.9432C9.60752 0.9432 7.41087 1.57712 5.4152 2.84496C3.41952 4.11278 1.89349 5.82116 0.837106 7.97011C1.89349 10.1191 3.41781 11.8274 5.41005 13.0953C7.40227 14.3631 9.59718 14.997 11.9948 14.997Z" fill="#242424"/>
</svg>
