<svg width="12" height="22" viewBox="0 0 12 22" fill="none" xmlns="http://www.w3.org/2000/svg">
<path d="M9.9749 21.5228L0.432834 11.9807C0.278256 11.8261 0.167473 11.6651 0.100484 11.4976C0.0334947 11.3302 0 11.1524 0 10.9643C0 10.7633 0.0334947 10.5823 0.100484 10.4213C0.167473 10.2603 0.278256 10.1024 0.432834 9.94786L10.0058 0.355512C10.2429 0.118504 10.5192 0 10.8348 0C11.1504 0 11.4267 0.118504 11.6638 0.355512C11.8879 0.592554 11.9948 0.874042 11.9845 1.19998C11.9742 1.52588 11.8506 1.80735 11.6135 2.0444L2.69362 10.9643L11.6638 19.9151C11.8879 20.1521 12 20.4201 12 20.7189C12 21.0178 11.8879 21.2858 11.6638 21.5228C11.4267 21.7599 11.1453 21.8784 10.8194 21.8784C10.4934 21.8784 10.2119 21.7599 9.9749 21.5228Z" fill="white"/>
</svg>
