<svg width="29" height="34" viewBox="0 0 29 34" fill="none" xmlns="http://www.w3.org/2000/svg">
<path d="M9.66667 2.41667V0H19.3333V2.41667H9.66667ZM13.2917 20.4208H15.7083V11.1569H13.2917V20.4208ZM14.5 33.7931C12.513 33.7931 10.64 33.4104 8.88125 32.6451C7.12245 31.8799 5.58519 30.8394 4.26944 29.5236C2.9537 28.2079 1.91319 26.6706 1.14792 24.9118C0.382639 23.153 0 21.2801 0 19.2931C0 17.306 0.382639 15.4331 1.14792 13.6743C1.91319 11.9155 2.9537 10.3782 4.26944 9.0625C5.58519 7.74676 7.12245 6.70625 8.88125 5.94097C10.64 5.17569 12.513 4.79306 14.5 4.79306C16.2991 4.79306 17.9907 5.09514 19.575 5.69931C21.1593 6.30347 22.569 7.14259 23.8042 8.21667L25.8583 6.1625L27.55 7.85417L25.4958 9.90833C26.4625 10.9824 27.2882 12.2847 27.9729 13.8153C28.6576 15.3458 29 17.1718 29 19.2931C29 21.2801 28.6174 23.153 27.8521 24.9118C27.0868 26.6706 26.0463 28.2079 24.7306 29.5236C23.4148 30.8394 21.8775 31.8799 20.1188 32.6451C18.36 33.4104 16.487 33.7931 14.5 33.7931ZM14.5 31.3764C17.8565 31.3764 20.7095 30.2016 23.059 27.8521C25.4086 25.5025 26.5833 22.6495 26.5833 19.2931C26.5833 15.9366 25.4086 13.0836 23.059 10.734C20.7095 8.38449 17.8565 7.20972 14.5 7.20972C11.1435 7.20972 8.29051 8.38449 5.94097 10.734C3.59144 13.0836 2.41667 15.9366 2.41667 19.2931C2.41667 22.6495 3.59144 25.5025 5.94097 27.8521C8.29051 30.2016 11.1435 31.3764 14.5 31.3764Z" fill="white"/>
</svg>
