<svg width="48" height="48" viewBox="0 0 48 48" fill="none" xmlns="http://www.w3.org/2000/svg">
<g filter="url(#filter0_d_0_8)">
<rect width="48" height="48" rx="6" fill="white"/>
<path d="M11.5384 38.4616H19.6154V26.4616H28.3846V38.4616H36.4616V19.7693L24 10.3269L11.5384 19.7564V38.4616ZM11.5384 40C11.1295 40 10.7708 39.8458 10.4625 39.5375C10.1542 39.2292 10 38.8705 10 38.4616V19.7693C10 19.5312 10.0475 19.3057 10.1426 19.0928C10.2378 18.8798 10.3979 18.7027 10.623 18.5616L23.0846 9.1192C23.2329 9.02177 23.3827 8.9487 23.534 8.9C23.6853 8.85127 23.8429 8.8269 24.0068 8.8269C24.1707 8.8269 24.327 8.85127 24.4759 8.9C24.6247 8.9487 24.7712 9.02177 24.9154 9.1192L37.377 18.5616C37.6021 18.7027 37.7622 18.8798 37.8573 19.0928C37.9524 19.3057 38 19.5312 38 19.7693V38.4616C38 38.8705 37.8458 39.2292 37.5375 39.5375C37.2292 39.8458 36.8705 40 36.4616 40H26.8461V28H21.1538V40H11.5384Z" fill="#242424"/>
</g>
<defs>
<filter id="filter0_d_0_8" x="-2" y="-2" width="56" height="56" filterUnits="userSpaceOnUse" color-interpolation-filters="sRGB">
<feFlood flood-opacity="0" result="BackgroundImageFix"/>
<feColorMatrix in="SourceAlpha" type="matrix" values="0 0 0 0 0 0 0 0 0 0 0 0 0 0 0 0 0 0 127 0" result="hardAlpha"/>
<feOffset dx="2" dy="2"/>
<feGaussianBlur stdDeviation="2"/>
<feComposite in2="hardAlpha" operator="out"/>
<feColorMatrix type="matrix" values="0 0 0 0 0 0 0 0 0 0 0 0 0 0 0 0 0 0 0.2 0"/>
<feBlend mode="normal" in2="BackgroundImageFix" result="effect1_dropShadow_0_8"/>
<feBlend mode="normal" in="SourceGraphic" in2="effect1_dropShadow_0_8" result="shape"/>
</filter>
</defs>
</svg>
