<svg width="94" height="81" viewBox="0 0 94 81" fill="none" xmlns="http://www.w3.org/2000/svg">
<path d="M11.3643 53.7158C8.17807 53.7158 5.48745 52.6071 3.29247 50.3897C1.09749 48.1722 0 45.4796 0 42.3118C0 39.1441 1.10485 36.4515 3.31456 34.234C5.52434 32.0166 8.20759 30.9079 11.3643 30.9079V17.7987C11.3643 16.0934 12.0016 14.6013 13.2761 13.3224C14.5506 12.0434 16.0375 11.4039 17.7368 11.4039H35.3675C35.3675 8.20658 36.4723 5.50658 38.682 3.30395C40.8918 1.10132 43.5751 0 46.7318 0C49.8885 0 52.5718 1.10871 54.7816 3.32612C56.9913 5.5436 58.0961 8.23621 58.0961 11.4039H75.7268C77.4261 11.4039 78.913 12.0434 80.1875 13.3224C81.4621 14.6013 82.0993 16.0934 82.0993 17.7987V30.9079C85.2856 30.9079 87.9762 32.0166 90.1712 34.234C92.3661 36.4515 93.4636 39.1441 93.4636 42.3118C93.4636 45.4796 92.3588 48.1722 90.1491 50.3897C87.9393 52.6071 85.256 53.7158 82.0993 53.7158V74.6053C82.0993 76.3105 81.4621 77.8026 80.1875 79.0816C78.913 80.3605 77.4261 81 75.7268 81H17.7368C16.0375 81 14.5506 80.3605 13.2761 79.0816C12.0016 77.8026 11.3643 76.3105 11.3643 74.6053V53.7158ZM32.2062 43.0579C33.3932 43.0579 34.3939 42.641 35.2082 41.8072C36.0224 40.9733 36.4296 39.9608 36.4296 38.7697C36.4296 37.5785 36.0141 36.5743 35.1832 35.7572C34.3522 34.9401 33.3433 34.5316 32.1563 34.5316C30.9692 34.5316 29.9685 34.9485 29.1543 35.7823C28.34 36.6162 27.9329 37.6287 27.9329 38.8198C27.9329 40.011 28.3483 41.0151 29.1792 41.8322C30.0102 42.6493 31.0192 43.0579 32.2062 43.0579ZM61.3074 43.0579C62.4944 43.0579 63.4951 42.641 64.3093 41.8072C65.1236 40.9733 65.5308 39.9608 65.5308 38.7697C65.5308 37.5785 65.1153 36.5743 64.2844 35.7572C63.4534 34.9401 62.4444 34.5316 61.2574 34.5316C60.0704 34.5316 59.0697 34.9485 58.2555 35.7823C57.4412 36.6162 57.0341 37.6287 57.0341 38.8198C57.0341 40.011 57.4495 41.0151 58.2804 41.8322C59.1114 42.6493 60.1204 43.0579 61.3074 43.0579ZM28.8888 63.4145H64.5749V57.0197H28.8888V63.4145Z" fill="#326E62"/>
</svg>
