<svg width="57" height="57" viewBox="0 0 57 57" fill="none" xmlns="http://www.w3.org/2000/svg">
<path d="M28.4793 57C27.7948 57 27.228 56.7705 26.7787 56.3114C26.3294 55.8524 26.1047 55.2835 26.1047 54.6048V30.8953H2.39528C1.71655 30.8953 1.14767 30.6638 0.688646 30.2007C0.229548 29.7376 0 29.1638 0 28.4793C0 27.7948 0.229548 27.228 0.688646 26.7787C1.14767 26.3294 1.71655 26.1047 2.39528 26.1047H26.1047V2.39528C26.1047 1.71662 26.3363 1.14775 26.7993 0.688653C27.2624 0.229554 27.8362 0 28.5207 0C29.2052 0 29.7721 0.229554 30.2213 0.688653C30.6706 1.14775 30.8953 1.71662 30.8953 2.39528V26.1047H54.6048C55.2834 26.1047 55.8523 26.3363 56.3114 26.7993C56.7705 27.2624 57 27.8362 57 28.5207C57 29.2052 56.7705 29.7721 56.3114 30.2213C55.8523 30.6706 55.2834 30.8953 54.6048 30.8953H30.8953V54.6048C30.8953 55.2835 30.6638 55.8524 30.2007 56.3114C29.7376 56.7705 29.1638 57 28.4793 57Z" fill="white"/>
</svg>
