<svg width="338" height="404" viewBox="0 0 338 404" fill="none" xmlns="http://www.w3.org/2000/svg">
<g opacity="0.25">
<path d="M337.78 226.605H0.219574C2.51358 180.627 23.2817 139.462 55.3001 110.35C87.5627 81.043 118.507 50.2783 149.379 19.5378L169 0L188.621 19.5378C219.492 50.2783 250.437 81.043 282.7 110.35C314.718 139.462 335.486 180.627 337.78 226.605Z" fill="#FBF2F0"/>
<path d="M164.729 221.744C164.729 223.348 164.705 224.928 164.656 226.532C163.045 226.58 161.459 226.605 159.848 226.605C72.2369 226.605 1.22031 155.889 1.22031 68.6496C1.22031 67.0458 1.24471 65.4662 1.29352 63.8624C2.9042 63.8138 4.49049 63.7895 6.10117 63.7895C93.7127 63.7895 164.729 134.505 164.729 221.744Z" fill="#40675C"/>
<path d="M167.829 226.604C166.804 226.604 165.803 226.604 164.778 226.556C164.754 225.535 164.729 224.539 164.729 223.518C164.729 168.185 209.78 123.326 265.348 123.326C266.373 123.326 267.374 123.326 268.399 123.375C268.423 124.396 268.448 125.392 268.448 126.412C268.448 181.745 223.397 226.604 167.829 226.604Z" fill="#8FB7A9"/>
<path d="M338 235.11C338 327.963 262.713 403.344 169.61 403.976C169.415 404 169.195 404 169 404C168.805 404 168.585 404 168.39 403.976C75.2874 403.344 0 327.963 0 235.11C0 232.267 0.073213 229.423 0.219639 226.604H337.78C337.927 229.423 338 232.267 338 235.11Z" fill="#EDBCB2"/>
</g>
</svg>
