<svg width="31" height="32" viewBox="0 0 31 32" fill="none" xmlns="http://www.w3.org/2000/svg">
<path d="M15.5 15.9471C15.08 15.9471 14.7311 15.8056 14.4535 15.5227C14.1758 15.2398 14.0369 14.891 14.0369 14.4762C14.0369 14.0614 14.1758 13.7125 14.4535 13.4296C14.7311 13.1467 15.08 13.0053 15.5 13.0053C15.92 13.0053 16.2689 13.1478 16.5466 13.4329C16.8243 13.7181 16.9631 14.0632 16.9631 14.4683C16.9631 14.8883 16.8243 15.2398 16.5466 15.5227C16.2689 15.8056 15.92 15.9471 15.5 15.9471ZM15.5 9.44443C15.08 9.44443 14.7311 9.30297 14.4535 9.02005C14.1758 8.73716 14.0369 8.38832 14.0369 7.97353C14.0369 7.55872 14.1758 7.20987 14.4535 6.92698C14.7311 6.64408 15.08 6.50264 15.5 6.50264C15.92 6.50264 16.2689 6.64519 16.5466 6.93031C16.8243 7.21542 16.9631 7.56055 16.9631 7.96569C16.9631 8.38571 16.8243 8.73716 16.5466 9.02005C16.2689 9.30297 15.92 9.44443 15.5 9.44443ZM15.5 2.94179C15.08 2.94179 14.7311 2.80033 14.4535 2.51741C14.1758 2.23452 14.0369 1.88568 14.0369 1.4709C14.0369 1.05608 14.1758 0.707229 14.4535 0.424337C14.7311 0.141445 15.08 0 15.5 0C15.92 0 16.2689 0.142555 16.5466 0.427668C16.8243 0.712782 16.9631 1.05791 16.9631 1.46305C16.9631 1.88307 16.8243 2.23452 16.5466 2.51741C16.2689 2.80033 15.92 2.94179 15.5 2.94179ZM20.352 19.1577C19.932 19.1577 19.5805 19.0189 19.2976 18.7412C19.0147 18.4635 18.8733 18.1147 18.8733 17.6947C18.8733 17.2746 19.0147 16.9258 19.2976 16.6481C19.5805 16.3704 19.9294 16.2316 20.3442 16.2316C20.759 16.2316 21.1078 16.3704 21.3907 16.6481C21.6736 16.9258 21.8151 17.2746 21.8151 17.6947C21.8151 18.1147 21.6725 18.4635 21.3874 18.7412C21.1023 19.0189 20.7571 19.1577 20.352 19.1577ZM24.9445 14.5246C24.5245 14.5246 24.173 14.3858 23.8901 14.1081C23.6072 13.8304 23.4657 13.4815 23.4657 13.0615C23.4657 12.6415 23.6072 12.2927 23.8901 12.015C24.173 11.7373 24.5219 11.5984 24.9366 11.5984C25.3515 11.5984 25.7003 11.7373 25.9832 12.015C26.2661 12.2927 26.4075 12.6415 26.4075 13.0615C26.4075 13.4815 26.265 13.8304 25.9799 14.1081C25.6948 14.3858 25.3496 14.5246 24.9445 14.5246ZM29.537 9.97277C29.117 9.97277 28.7655 9.83392 28.4826 9.55623C28.1997 9.27855 28.0582 8.92969 28.0582 8.50968C28.0582 8.08966 28.1997 7.74081 28.4826 7.46312C28.7655 7.18543 29.1143 7.04658 29.5291 7.04658C29.9439 7.04658 30.2928 7.18543 30.5757 7.46312C30.8586 7.74081 31 8.08966 31 8.50968C31 8.92969 30.8575 9.27855 30.5724 9.55623C30.2872 9.83392 29.9421 9.97277 29.537 9.97277ZM10.6559 19.1577C10.2411 19.1577 9.89221 19.0189 9.60932 18.7412C9.32642 18.4635 9.18498 18.1147 9.18498 17.6947C9.18498 17.2746 9.32753 16.9258 9.61265 16.6481C9.89776 16.3704 10.2429 16.2316 10.648 16.2316C11.068 16.2316 11.4195 16.3704 11.7024 16.6481C11.9853 16.9258 12.1268 17.2746 12.1268 17.6947C12.1268 18.1147 11.9853 18.4635 11.7024 18.7412C11.4195 19.0189 11.0707 19.1577 10.6559 19.1577ZM6.06339 14.5246C5.64857 14.5246 5.29972 14.3858 5.01683 14.1081C4.73393 13.8304 4.59249 13.4815 4.59249 13.0615C4.59249 12.6415 4.73505 12.2927 5.02016 12.015C5.30527 11.7373 5.6504 11.5984 6.05554 11.5984C6.47556 11.5984 6.82701 11.7373 7.1099 12.015C7.39282 12.2927 7.53428 12.6415 7.53428 13.0615C7.53428 13.4815 7.39282 13.8304 7.1099 14.1081C6.82701 14.3858 6.47817 14.5246 6.06339 14.5246ZM1.4709 9.97277C1.05608 9.97277 0.70723 9.83392 0.424338 9.55623C0.141446 9.27855 0 8.92969 0 8.50968C0 8.08966 0.142557 7.74081 0.427671 7.46312C0.712784 7.18543 1.05791 7.04658 1.46305 7.04658C1.88307 7.04658 2.23452 7.18543 2.51742 7.46312C2.80033 7.74081 2.94179 8.08966 2.94179 8.50968C2.94179 8.92969 2.80033 9.27855 2.51742 9.55623C2.23452 9.83392 1.88568 9.97277 1.4709 9.97277ZM15.492 31.9192C15.2285 31.9192 15.0102 31.8308 14.8373 31.654C14.6643 31.4772 14.5778 31.2582 14.5778 30.9969V25.1195H8.99738C8.73608 25.1195 8.51705 25.0304 8.34028 24.8521C8.16352 24.6738 8.07514 24.4529 8.07514 24.1893C8.07514 23.9258 8.16352 23.7075 8.34028 23.5346C8.51705 23.3616 8.73608 23.2751 8.99738 23.2751H22.0027C22.264 23.2751 22.483 23.3642 22.6597 23.5425C22.8365 23.7208 22.9249 23.9417 22.9249 24.2053C22.9249 24.4688 22.8365 24.6871 22.6597 24.86C22.483 25.033 22.264 25.1195 22.0027 25.1195H16.4223V30.9969C16.4223 31.2582 16.3331 31.4772 16.1548 31.654C15.9765 31.8308 15.7556 31.9192 15.492 31.9192Z" fill="white"/>
</svg>
