<svg width="50" height="50" viewBox="0 0 50 50" fill="none" xmlns="http://www.w3.org/2000/svg">
<path d="M18.4335 42.1475H31.6066C31.9004 42.1475 32.1541 42.0606 32.3678 41.887C32.5815 41.7134 32.7417 41.4797 32.8485 41.1859L35.3085 31.4103H14.6915L17.1915 41.1859C17.2716 41.4797 17.4185 41.7134 17.6322 41.887C17.8459 42.0606 18.113 42.1475 18.4335 42.1475ZM18.4335 43.75C17.7657 43.75 17.1759 43.5523 16.6638 43.1569C16.1518 42.7616 15.8015 42.2448 15.613 41.6066L13.0248 31.4103H36.9752L34.387 41.6066C34.1985 42.2181 33.8482 42.7282 33.3362 43.1369C32.8241 43.5456 32.2476 43.75 31.6066 43.75H18.4335ZM12.0192 29.8077H38.0609C38.4349 29.8077 38.742 29.6875 38.9824 29.4471C39.2228 29.2068 39.343 28.8996 39.343 28.5256V24.7596H10.7372V28.5256C10.7372 28.8996 10.8574 29.2068 11.0978 29.4471C11.3381 29.6875 11.6453 29.8077 12.0192 29.8077ZM15.8093 8.03683C18.1223 8.57638 20.1576 9.79433 21.9151 11.6907C23.6726 13.5871 24.7009 15.7091 25 18.0569C25.3339 15.6984 26.3795 13.5757 28.137 11.6887C29.8945 9.80166 31.9124 8.58838 34.1907 8.04886C34.4735 7.97942 34.7064 8.03627 34.8895 8.21943C35.0727 8.40256 35.1295 8.63549 35.0601 8.91824C34.5366 11.0684 33.4028 12.9995 31.6586 14.7115C29.9145 16.4236 27.9621 17.5093 25.8013 17.9688V23.157H39.5032C39.9192 23.157 40.2636 23.2934 40.5364 23.5662C40.8091 23.839 40.9455 24.1834 40.9455 24.5993V28.5256C40.9455 29.3049 40.6596 29.9805 40.0877 30.5524C39.5157 31.1243 38.8402 31.4103 38.0609 31.4103H12.0192C11.24 31.4103 10.5644 31.1243 9.99245 30.5524C9.42054 29.9805 9.13458 29.3049 9.13458 28.5256V24.5993C9.13458 24.1834 9.27097 23.839 9.54375 23.5662C9.81653 23.2934 10.1609 23.157 10.5769 23.157H24.1987V17.9688C22.0379 17.5093 20.0855 16.4236 18.3414 14.7115C16.5972 12.9995 15.4634 11.0684 14.9399 8.91824C14.8705 8.64046 14.9251 8.40676 15.1038 8.21714C15.2824 8.02749 15.5176 7.96739 15.8093 8.03683Z" fill="white"/>
</svg>
