<svg width="50" height="50" viewBox="0 0 50 50" fill="none" xmlns="http://www.w3.org/2000/svg">
<path d="M25 24.8438C24.4617 24.8438 24.0147 24.6625 23.6588 24.2999C23.3029 23.9374 23.125 23.4903 23.125 22.9588C23.125 22.4272 23.3029 21.9801 23.6588 21.6176C24.0147 21.255 24.4617 21.0738 25 21.0738C25.5383 21.0738 25.9853 21.2565 26.3412 21.6218C26.6971 21.9872 26.875 22.4295 26.875 22.9487C26.875 23.487 26.6971 23.9374 26.3412 24.2999C25.9853 24.6625 25.5383 24.8438 25 24.8438ZM25 16.5104C24.4617 16.5104 24.0147 16.3292 23.6588 15.9666C23.3029 15.604 23.125 15.157 23.125 14.6254C23.125 14.0938 23.3029 13.6468 23.6588 13.2842C24.0147 12.9217 24.4617 12.7404 25 12.7404C25.5383 12.7404 25.9853 12.9231 26.3412 13.2885C26.6971 13.6539 26.875 14.0962 26.875 14.6154C26.875 15.1536 26.6971 15.604 26.3412 15.9666C25.9853 16.3292 25.5383 16.5104 25 16.5104ZM25 8.1771C24.4617 8.1771 24.0147 7.99582 23.6588 7.63325C23.3029 7.27071 23.125 6.82366 23.125 6.2921C23.125 5.7605 23.3029 5.31344 23.6588 4.95091C24.0147 4.58837 24.4617 4.4071 25 4.4071C25.5383 4.4071 25.9853 4.58979 26.3412 4.95517C26.6971 5.32056 26.875 5.76285 26.875 6.28205C26.875 6.82031 26.6971 7.27071 26.3412 7.63325C25.9853 7.99582 25.5383 8.1771 25 8.1771ZM31.218 28.9584C30.6797 28.9584 30.2293 28.7804 29.8668 28.4246C29.5042 28.0687 29.3229 27.6216 29.3229 27.0834C29.3229 26.5451 29.5042 26.098 29.8668 25.7422C30.2293 25.3863 30.6763 25.2084 31.2079 25.2084C31.7395 25.2084 32.1866 25.3863 32.5491 25.7422C32.9116 26.098 33.0929 26.5451 33.0929 27.0834C33.0929 27.6216 32.9102 28.0687 32.5448 28.4246C32.1795 28.7804 31.7372 28.9584 31.218 28.9584ZM37.1034 23.0209C36.5651 23.0209 36.1147 22.8429 35.7522 22.487C35.3896 22.1312 35.2083 21.6841 35.2083 21.1459C35.2083 20.6076 35.3896 20.1605 35.7522 19.8047C36.1147 19.4488 36.5618 19.2709 37.0933 19.2709C37.6249 19.2709 38.072 19.4488 38.4345 19.8047C38.7971 20.1605 38.9783 20.6076 38.9783 21.1459C38.9783 21.6841 38.7956 22.1312 38.4303 22.487C38.0649 22.8429 37.6226 23.0209 37.1034 23.0209ZM42.9888 17.1875C42.4505 17.1875 42.0001 17.0096 41.6376 16.6537C41.275 16.2978 41.0937 15.8508 41.0937 15.3125C41.0937 14.7743 41.275 14.3272 41.6376 13.9713C42.0001 13.6155 42.4472 13.4375 42.9787 13.4375C43.5103 13.4375 43.9574 13.6155 44.3199 13.9713C44.6825 14.3272 44.8637 14.7743 44.8637 15.3125C44.8637 15.8508 44.6811 16.2978 44.3157 16.6537C43.9503 17.0096 43.508 17.1875 42.9888 17.1875ZM18.7921 28.9584C18.2605 28.9584 17.8134 28.7804 17.4509 28.4246C17.0883 28.0687 16.9071 27.6216 16.9071 27.0834C16.9071 26.5451 17.0898 26.098 17.4552 25.7422C17.8205 25.3863 18.2628 25.2084 18.782 25.2084C19.3203 25.2084 19.7707 25.3863 20.1332 25.7422C20.4958 26.098 20.6771 26.5451 20.6771 27.0834C20.6771 27.6216 20.4958 28.0687 20.1332 28.4246C19.7707 28.7804 19.3236 28.9584 18.7921 28.9584ZM12.9067 23.0209C12.3751 23.0209 11.928 22.8429 11.5655 22.487C11.2029 22.1312 11.0217 21.6841 11.0217 21.1459C11.0217 20.6076 11.2044 20.1605 11.5697 19.8047C11.9351 19.4488 12.3774 19.2709 12.8966 19.2709C13.4349 19.2709 13.8853 19.4488 14.2478 19.8047C14.6104 20.1605 14.7917 20.6076 14.7917 21.1459C14.7917 21.6841 14.6104 22.1312 14.2478 22.487C13.8853 22.8429 13.4382 23.0209 12.9067 23.0209ZM7.02125 17.1875C6.48965 17.1875 6.04258 17.0096 5.68005 16.6537C5.31751 16.2978 5.13625 15.8508 5.13625 15.3125C5.13625 14.7743 5.31894 14.3272 5.68432 13.9713C6.0497 13.6155 6.49199 13.4375 7.01119 13.4375C7.54946 13.4375 7.99986 13.6155 8.36239 13.9713C8.72496 14.3272 8.90625 14.7743 8.90625 15.3125C8.90625 15.8508 8.72496 16.2978 8.36239 16.6537C7.99986 17.0096 7.55281 17.1875 7.02125 17.1875ZM24.9898 45.3125C24.652 45.3125 24.3723 45.1992 24.1507 44.9727C23.929 44.7461 23.8181 44.4655 23.8181 44.1306V36.5986H16.6667C16.3318 36.5986 16.0511 36.4843 15.8246 36.2559C15.5981 36.0273 15.4848 35.7442 15.4848 35.4065C15.4848 35.0687 15.5981 34.789 15.8246 34.5674C16.0511 34.3457 16.3318 34.2348 16.6667 34.2348H33.3333C33.6682 34.2348 33.9489 34.349 34.1754 34.5775C34.4019 34.806 34.5152 35.0891 34.5152 35.4269C34.5152 35.7646 34.4019 36.0443 34.1754 36.266C33.9489 36.4877 33.6682 36.5986 33.3333 36.5986H26.1819V44.1306C26.1819 44.4655 26.0676 44.7461 25.8392 44.9727C25.6107 45.1992 25.3275 45.3125 24.9898 45.3125Z" fill="white"/>
</svg>
