<svg width="50" height="50" viewBox="0 0 50 50" fill="none" xmlns="http://www.w3.org/2000/svg">
<path d="M24.994 34.7036C27.1241 34.7036 28.9129 33.9798 30.3606 32.5321C31.8082 31.0845 32.5321 29.2956 32.5321 27.1655C32.5321 25.0354 31.8082 23.2486 30.3606 21.8049C28.9129 20.3613 27.1241 19.6395 24.994 19.6395C22.8639 19.6395 21.077 20.3613 19.6334 21.8049C18.1897 23.2486 17.4679 25.0354 17.4679 27.1655C17.4679 29.2956 18.1897 31.0845 19.6334 32.5321C21.077 33.9798 22.8639 34.7036 24.994 34.7036ZM9.13458 41.6667C8.33399 41.6667 7.65307 41.3861 7.09182 40.8249C6.53061 40.2636 6.25 39.5827 6.25 38.7821V15.5489C6.25 14.7503 6.53061 14.0699 7.09182 13.5076C7.65307 12.9454 8.33399 12.6643 9.13458 12.6643H15.7893L18.774 9.26686C19.0518 8.96506 19.3691 8.73402 19.726 8.57374C20.0828 8.4135 20.484 8.33337 20.9295 8.33337H29.0705C29.516 8.33337 29.9172 8.4135 30.274 8.57374C30.6309 8.73402 30.9482 8.96506 31.226 9.26686L34.2107 12.6643H40.8654C41.664 12.6643 42.3444 12.9454 42.9067 13.5076C43.4689 14.0699 43.75 14.7503 43.75 15.5489V38.7821C43.75 39.5827 43.4689 40.2636 42.9067 40.8249C42.3444 41.3861 41.664 41.6667 40.8654 41.6667H9.13458ZM40.8654 40.0642C41.2393 40.0642 41.5465 39.944 41.7869 39.7036C42.0273 39.4632 42.1474 39.156 42.1474 38.7821V15.5489C42.1474 15.2017 42.0273 14.9012 41.7869 14.6475C41.5465 14.3937 41.2393 14.2669 40.8654 14.2669H9.13458C8.76066 14.2669 8.45351 14.3937 8.21312 14.6475C7.97274 14.9012 7.85255 15.2017 7.85255 15.5489V38.7821C7.85255 39.156 7.97274 39.4632 8.21312 39.7036C8.45351 39.944 8.76066 40.0642 9.13458 40.0642H40.8654Z" fill="white"/>
</svg>
