<svg width="68" height="77" viewBox="0 0 68 77" fill="none" xmlns="http://www.w3.org/2000/svg">
<path d="M0 76.7668V53.3103C0 51.551 0.624219 50.045 1.87266 48.7922C3.1211 47.5394 4.62188 46.913 6.375 46.913H61.625C63.3782 46.913 64.8789 47.5394 66.1274 48.7922C67.3758 50.045 68 51.551 68 53.3103V76.7668H0ZM21.25 42.6482C15.3708 42.6482 10.3594 40.5691 6.21563 36.4109C2.07188 32.2527 0 27.2238 0 21.3241C0 15.4244 2.07188 10.3955 6.21563 6.2373C10.3594 2.0791 15.3708 0 21.25 0H46.75C52.6292 0 57.6407 2.0791 61.7844 6.2373C65.9282 10.3955 68 15.4244 68 21.3241C68 27.2238 65.9282 32.2527 61.7844 36.4109C57.6407 40.5691 52.6292 42.6482 46.75 42.6482H21.25ZM21.2686 24.5227C22.177 24.5227 22.9323 24.2144 23.5344 23.5978C24.1365 22.9811 24.4375 22.217 24.4375 21.3054C24.4375 20.3938 24.1303 19.6359 23.5158 19.0318C22.9012 18.4276 22.1398 18.1255 21.2314 18.1255C20.323 18.1255 19.5677 18.4338 18.9656 19.0504C18.3636 19.6671 18.0625 20.4312 18.0625 21.3428C18.0625 22.2544 18.3698 23.0123 18.9842 23.6164C19.5988 24.2206 20.3602 24.5227 21.2686 24.5227ZM46.7686 24.5227C47.6771 24.5227 48.4323 24.2144 49.0344 23.5978C49.6365 22.9811 49.9375 22.217 49.9375 21.3054C49.9375 20.3938 49.6303 19.6359 49.0158 19.0318C48.4013 18.4276 47.6398 18.1255 46.7314 18.1255C45.823 18.1255 45.0677 18.4338 44.4657 19.0504C43.8636 19.6671 43.5625 20.4312 43.5625 21.3428C43.5625 22.2544 43.8698 23.0123 44.4842 23.6164C45.0988 24.2206 45.8603 24.5227 46.7686 24.5227Z" fill="#326E62"/>
</svg>
