<svg width="28" height="28" viewBox="0 0 28 28" fill="none" xmlns="http://www.w3.org/2000/svg">
<path d="M11.0923 19.8019C10.9757 19.8019 10.8724 19.7787 10.7827 19.7324C10.6929 19.686 10.6069 19.6217 10.5247 19.5394L5.67178 14.709C5.57158 14.6088 5.52148 14.4958 5.52148 14.3702C5.52148 14.2446 5.57158 14.1316 5.67178 14.0314C5.772 13.9461 5.87894 13.9035 5.99261 13.9035C6.10631 13.9035 6.21326 13.9461 6.31348 14.0314L11.0923 18.8327L21.6798 8.22275C21.78 8.13749 21.8881 8.09486 22.004 8.09486C22.1199 8.09486 22.228 8.13749 22.3282 8.22275C22.4284 8.32297 22.4785 8.43104 22.4785 8.54694C22.4785 8.66287 22.4284 8.77094 22.3282 8.87116L11.6599 19.5394C11.5777 19.6217 11.4879 19.686 11.3907 19.7324C11.2935 19.7787 11.194 19.8019 11.0923 19.8019Z" fill="#80B8A8"/>
</svg>
